<?xml version="1.0" encoding="utf-8"?>
<!-- Generator: Adobe Illustrator 23.0.4, SVG Export Plug-In . SVG Version: 6.00 Build 0)  -->
<svg version="1.1" id="Capa_1" xmlns="http://www.w3.org/2000/svg" xmlns:xlink="http://www.w3.org/1999/xlink" x="0px" y="0px"
	 viewBox="0 0 512 512" style="enable-background:new 0 0 512 512;" xml:space="preserve">
<style type="text/css">
	.st0{fill:#A96F29;}
</style>
<g>
	<g>
		<path class="st0" d="M256,103.4c-97.8,0-186.5,53.5-252,140.5c-5.3,7.1-5.3,17.1,0,24.2c65.5,87,154.2,140.6,252,140.6
			s186.5-53.5,252-140.5c5.3-7.1,5.3-17.1,0-24.2C442.5,156.9,353.8,103.4,256,103.4z M263,363.5c-64.9,4-118.5-49.5-114.5-114.5
			c3.4-53.6,46.8-97.1,100.4-100.4c64.9-4.1,118.6,49.4,114.5,114.5C360,316.5,316.5,360,263,363.5z M259.8,313.8
			c-35,2.2-63.9-26.6-61.6-61.6c1.8-28.9,25.2-52.3,54.1-54.1c35-2.2,63.9,26.6,61.6,61.6C312,288.7,288.6,312,259.8,313.8z"/>
	</g>
</g>
</svg>
