<svg xmlns="http://www.w3.org/2000/svg" width="36" height="30" viewBox="0 0 36 30">
  <g id="グループ_9165" data-name="グループ 9165" transform="translate(21941 2015)">
    <g id="グループ_1627" data-name="グループ 1627" transform="translate(-21941 -2012)">
      <path id="パス_806" data-name="パス 806" d="M4481.362,795.163q6.5-.164,13,.117c1.408.069,2.815.144,4.215.313a6.889,6.889,0,0,1,2.234.546,4.462,4.462,0,0,1,2.389,2.982,29.483,29.483,0,0,1,.6,4.972,60.359,60.359,0,0,1-.047,7.693,25.941,25.941,0,0,1-.571,4.242,4.459,4.459,0,0,1-2.406,2.94,7.751,7.751,0,0,1-2.456.561c-2.16.23-4.33.306-6.5.374q-6.941.207-13.884-.091a43.862,43.862,0,0,1-5.265-.469,4.486,4.486,0,0,1-3.188-2.29,7.722,7.722,0,0,1-.681-2.486,54.754,54.754,0,0,1-.437-6.916,57.221,57.221,0,0,1,.387-6.763,8.3,8.3,0,0,1,.784-2.945,4.459,4.459,0,0,1,1.959-1.819,7.871,7.871,0,0,1,2.488-.563c2.45-.257,4.913-.326,7.371-.4m1.224,7.066q0,5.316,0,10.633l9.2-5.316q-4.6-2.66-9.2-5.317Z" transform="translate(-4468.373 -795.104)" fill="#f61e0d"/>
      <path id="パス_807" data-name="パス 807" d="M4638.694,880.49q4.6,2.656,9.2,5.317l-9.2,5.316q0-5.315,0-10.633Z" transform="translate(-4624.481 -873.365)" fill="#fff"/>
    </g>
    <rect id="長方形_23549" data-name="長方形 23549" width="36" height="30" transform="translate(-21941 -2015)" fill="none"/>
  </g>
</svg>
