<svg xmlns="http://www.w3.org/2000/svg" width="30" height="30" viewBox="0 0 30 30">
  <g id="グループ_9162" data-name="グループ 9162" transform="translate(22102 2015)">
    <g id="Icon_-_Twitter" data-name="Icon - Twitter" transform="translate(-22102 -2011.596)">
      <path id="パス_779" data-name="パス 779" d="M1820.923,920.509a6.032,6.032,0,0,1,3.9-7.006c3.057-1.385,6.172,1.578,6.172,1.578l3.723-1.487c0,1.6-2.659,3.191-2.659,3.191a12.987,12.987,0,0,0,3.723-.532c0,.532-3.191,3.191-3.191,3.191,0,12.765-9.574,18.083-17.552,18.083s-9.042-3.191-9.042-3.191c6.382,0,8.51-2.659,8.51-2.659-1.6,1.064-5.318-3.723-5.318-3.723,1.064.532,3.191,0,3.191,0-3.191-.532-5.319-6.382-5.319-6.382.532,1.064,3.191,1.064,3.191,1.064-4.255-4.255-2.128-8.51-2.128-8.51C1811.319,919.446,1820.923,920.509,1820.923,920.509Z" transform="translate(-1806 -913.135)" fill="#1da1f1"/>
    </g>
    <rect id="長方形_23551" data-name="長方形 23551" width="30" height="30" transform="translate(-22102 -2015)" fill="none"/>
  </g>
</svg>
