<?xml version="1.0" encoding="utf-8"?>
<!-- Generator: Adobe Illustrator 27.2.0, SVG Export Plug-In . SVG Version: 6.00 Build 0)  -->
<svg version="1.1" id="Layer_1" xmlns="http://www.w3.org/2000/svg" xmlns:xlink="http://www.w3.org/1999/xlink" x="0px" y="0px"
	 viewBox="0 0 880 880" style="enable-background:new 0 0 880 880;" xml:space="preserve">
<style type="text/css">
	.st0{fill-rule:evenodd;clip-rule:evenodd;fill:#00F7EF;}
	.st1{fill-rule:evenodd;clip-rule:evenodd;}
	.st2{fill-rule:evenodd;clip-rule:evenodd;fill:#FF004F;}
</style>
<g>
	<path class="st0" d="M151.2,774.4C-30,617.2,87.1,267.2,365.7,311.2v32.4C130.5,332.7,26.9,613.3,151.2,774.4z M659.2,167.2
		c28.6,22.9,68.1,39.7,122.5,43v31.8C721.5,230.8,683.4,200.9,659.2,167.2z M583.7,0c0,11.7,1.5,24.3,3.4,35.8H476v552.9
		c0,25.5-2.6,48.2-7.8,68.1C423,756.4,295,743.4,259.6,675c52.7,33,139.3,24.2,174.8-54.1c5.2-19.9,7.8-42.6,7.8-68.1V0H583.7z"/>
	<path class="st1" d="M617.5,35.8v0.7c0,12.8,3.8,197.9,198,209.4c0,172.2,0.1,0,0.1,143c-14.6,0.9-127.9-7.3-198.3-70.2l-0.2,278.4
		c1.7,126.1-68.4,249.7-199.8,274.6c-36.8,7-70,7.8-125.6-4.4C-28.9,771.6,77.7,296.1,399.5,347c0,153.5,0.1,0,0.1,153.5
		c-133-19.6-177.4,91-142.1,170.2c32.2,72.1,164.5,87.7,210.7-14c5.2-19.9,7.8-42.6,7.8-68.1V35.8H617.5z"/>
	<path class="st2" d="M365.7,343.6c11,0.5,22.3,1.6,33.8,3.4c0,153.5,0.1,0,0.1,153.5c-133-19.6-177.4,91-142.1,170.2
		c0.6,1.4,1.4,2.9,2.1,4.3c-15.8-9.9-28.5-23.5-35.9-40.1c-35.3-79.2,9.1-189.8,142.1-170.2C365.7,324,365.7,441.1,365.7,343.6z
		 M781.7,241.9c10.6,1.9,21.9,3.3,33.8,4c0,172.2,0.1,0,0.1,143c-14.6,0.9-127.9-7.3-198.3-70.2l-0.2,278.4
		c1.7,126.1-68.4,249.7-199.8,274.6c-36.8,7-70,7.8-125.6-4.4c-62.6-18.7-108.9-52-140.5-93c28.2,24.5,63.6,44.3,106.7,57.2
		c55.6,12.1,88.7,11.3,125.5,4.4C514.8,811.1,585,687.5,583.3,561.5l0.2-278.5c70.5,62.9,183.7,71.1,198.4,70.2
		C781.9,220.3,781.7,359.4,781.7,241.9z M617.5,35.8v0.7c0,7.5,1.3,74.4,41.7,130.7c-48.6-38.9-66-95.1-72.1-131.4H617.5z"/>
</g>
</svg>
