<?xml version="1.0" encoding="utf-8"?>
<!-- Generator: Adobe Illustrator 23.0.4, SVG Export Plug-In . SVG Version: 6.00 Build 0)  -->
<svg version="1.1" id="Capa_1" xmlns="http://www.w3.org/2000/svg" xmlns:xlink="http://www.w3.org/1999/xlink" x="0px" y="0px"
	 viewBox="0 0 350.5 350.7" style="enable-background:new 0 0 350.5 350.7;" xml:space="preserve">
<style type="text/css">
	.st0{fill:none;stroke:#A96F29;stroke-width:14;stroke-miterlimit:10;}
</style>
<title>limon</title>
<path class="st0" d="M271.5,10.7l-260.7,256c-5,4.9-5.1,12.9-0.3,18c36.3,37.7,86.4,59.1,138.8,59.1c107.3,0,194.2-88.1,194.2-196.8
	c0.1-50.6-19.1-99.2-53.8-136c-4.8-5.1-12.9-5.3-18-0.5C271.6,10.6,271.6,10.6,271.5,10.7z"/>
<path class="st0" d="M35,247.7c15.2,15.3,33.4,27.2,53.5,35c79.2,31,168.1-7.3,198.7-85.5c22.4-57.3,7.3-120-33.5-161.7"/>
<line class="st0" x1="139.2" y1="141.3" x2="294.4" y2="140.4"/>
<line class="st0" x1="139.2" y1="141.3" x2="135.1" y2="296.4"/>
<line class="st0" x1="139.2" y1="141.3" x2="250.9" y2="253"/>
</svg>
