<?xml version="1.0" standalone="no"?>
<!DOCTYPE svg PUBLIC "-//W3C//DTD SVG 20010904//EN"
 "http://www.w3.org/TR/2001/REC-SVG-20010904/DTD/svg10.dtd">
<svg version="1.0" xmlns="http://www.w3.org/2000/svg"
 width="300.000000pt" height="300.000000pt" viewBox="0 0 300.000000 300.000000"
 preserveAspectRatio="xMidYMid meet">
<metadata>
Created by potrace 1.10, written by Peter Selinger 2001-2011
</metadata>
<g transform="translate(0.000000,300.000000) scale(0.100000,-0.100000)"
fill="#000000" stroke="none">
<path d="M1289 2684 c-424 -76 -785 -385 -924 -788 -129 -377 -64 -799 170
-1111 392 -521 1110 -641 1645 -274 327 224 520 590 520 989 0 407 -192 766
-535 1000 -135 91 -296 156 -462 185 -105 18 -311 18 -414 -1z m425 -20 c474
-78 867 -473 952 -956 92 -516 -170 -1034 -641 -1270 -270 -136 -619 -159
-904 -61 -289 99 -543 319 -680 590 -143 284 -165 648 -56 937 106 282 311
515 570 648 241 123 478 158 759 112z"/>
<path d="M1305 2644 c-484 -81 -877 -481 -950 -964 -57 -371 61 -733 325 -998
452 -455 1186 -456 1640 -2 237 237 354 542 337 883 -23 476 -339 888 -798
1041 -160 53 -381 70 -554 40z m450 -25 c349 -78 650 -327 795 -657 191 -434
97 -936 -240 -1272 -530 -531 -1410 -420 -1796 225 -59 99 -104 213 -136 345
-30 121 -30 359 0 480 76 313 238 549 492 718 137 91 336 164 493 182 103 12
288 2 392 -21z"/>
<path d="M1426 2577 c-3 -18 -15 -50 -25 -70 -19 -36 -19 -37 1 -37 10 0 16 5
13 10 -7 11 42 33 55 25 5 -3 7 -12 3 -20 -4 -11 3 -15 26 -15 17 0 31 2 31 5
0 3 -13 35 -29 70 -22 48 -35 65 -49 65 -14 0 -21 -9 -26 -33z m34 -44 c0 -7
-7 -13 -15 -13 -15 0 -21 31 -8 43 8 8 23 -12 23 -30z"/>
<path d="M1570 2555 c0 -25 -5 -55 -10 -66 -10 -17 -7 -19 20 -19 25 0 30 4
30 25 0 14 4 25 9 25 12 0 24 -37 17 -49 -3 -5 10 -11 29 -13 19 -2 35 -3 35
-2 0 1 -7 14 -15 30 -13 25 -13 29 0 37 20 11 19 44 -2 56 -10 5 -39 12 -65
16 l-48 7 0 -47z m85 0 c0 -13 -8 -21 -22 -23 -24 -3 -28 4 -17 33 9 22 39 14
39 -10z"/>
<path d="M1740 2556 c0 -9 7 -12 20 -9 13 4 20 0 20 -9 0 -22 -22 -82 -33 -89
-5 -4 4 -11 21 -17 l29 -10 12 54 c13 57 27 76 37 50 8 -20 24 -21 24 -2 0 9
-21 21 -54 30 -66 20 -76 20 -76 2z"/>
<path d="M1172 2523 c-1 -21 -4 -55 -8 -77 -5 -30 -3 -37 7 -34 8 3 14 13 14
23 0 24 42 39 53 19 6 -11 16 -13 35 -9 l27 7 -43 54 c-52 67 -83 73 -85 17z
m35 -22 c13 -20 8 -31 -14 -31 -7 0 -13 11 -13 25 0 30 11 32 27 6z"/>
<path d="M1891 2486 c-7 -23 -19 -49 -28 -58 -14 -15 -11 -19 35 -42 43 -22
52 -23 62 -11 11 13 8 15 -18 15 -38 0 -46 11 -27 36 12 16 16 16 24 5 5 -7
14 -10 20 -7 18 11 13 26 -9 26 -21 0 -25 7 -12 28 10 16 42 5 42 -14 0 -8 5
-14 10 -14 6 0 10 8 10 18 0 11 -18 25 -48 38 l-48 21 -13 -41z"/>
<path d="M1033 2497 c-30 -15 -43 -27 -42 -41 0 -20 1 -20 16 2 27 39 36 26
28 -43 l-7 -66 56 28 c49 24 74 53 46 53 -5 0 -10 -4 -10 -10 0 -5 -10 -14
-21 -21 -22 -11 -22 -11 -15 55 4 36 3 66 -1 65 -4 0 -27 -10 -50 -22z"/>
<path d="M888 2414 l-37 -26 30 -41 c16 -22 29 -46 29 -54 0 -18 2 -17 55 14
44 27 55 46 35 58 -5 3 -10 0 -10 -8 0 -8 -7 -20 -16 -27 -12 -11 -18 -11 -31
2 -17 18 -8 42 13 34 16 -6 18 3 4 24 -8 13 -11 12 -24 -5 -14 -17 -17 -18
-26 -5 -16 24 -12 30 20 36 16 4 27 10 24 15 -9 15 -28 10 -66 -17z"/>
<path d="M2023 2423 c-4 -9 3 -33 16 -56 24 -40 23 -54 -4 -44 -8 4 -15 18
-15 32 0 16 -6 25 -15 25 -24 0 -17 -37 12 -60 59 -46 107 -2 64 59 -22 30
-27 51 -13 51 14 0 32 -23 32 -41 0 -24 19 -34 26 -14 4 10 -3 26 -16 41 -28
28 -77 33 -87 7z"/>
<path d="M1290 2380 c-107 -27 -193 -64 -285 -124 -190 -124 -325 -314 -381
-534 -34 -133 -34 -311 0 -444 56 -221 192 -412 381 -533 160 -103 303 -145
497 -145 249 0 443 78 622 249 185 177 276 392 276 651 0 199 -53 370 -164
523 -51 72 -159 179 -229 226 -76 51 -206 109 -298 131 -112 27 -311 27 -419
0z m357 -5 c211 -40 368 -125 506 -274 170 -184 259 -456 229 -697 -33 -260
-170 -490 -377 -633 -87 -60 -153 -91 -274 -128 -76 -23 -103 -26 -231 -26
-129 0 -155 3 -235 27 -319 97 -542 322 -627 635 -30 109 -30 333 0 442 86
316 330 560 638 638 43 11 93 22 109 24 70 10 188 6 262 -8z"/>
<path d="M1330 2356 c-204 -45 -382 -153 -504 -304 -131 -163 -196 -345 -196
-552 0 -429 307 -789 734 -861 86 -15 270 -6 350 16 394 106 656 445 656 846
0 483 -392 872 -874 868 -61 -1 -136 -7 -166 -13z m325 -11 c354 -67 623 -336
690 -690 88 -460 -222 -911 -690 -1000 -521 -100 -1015 311 -1015 845 0 533
494 945 1015 845z"/>
<path d="M1282 2220 c11 -27 25 -50 30 -50 4 0 -3 23 -17 50 -14 28 -27 50
-30 50 -2 0 5 -22 17 -50z"/>
<path d="M1423 2210 c-5 -17 -8 -18 -21 -8 -13 11 -14 10 -3 -9 15 -29 31 -30
31 -2 0 11 4 17 10 14 6 -3 7 1 4 9 -8 21 -15 20 -21 -4z"/>
<path d="M1561 2176 c2 -2 29 -6 59 -9 34 -3 47 -2 35 3 -19 8 -103 14 -94 6z"/>
<path d="M1321 2138 c-29 -5 -70 -16 -90 -26 -20 -10 -49 -25 -65 -33 -41 -20
-54 -44 -39 -69 10 -14 10 -49 3 -143 -16 -214 16 -378 96 -495 42 -59 102
-116 151 -140 29 -14 33 -21 39 -71 4 -33 2 -79 -5 -112 -6 -30 -11 -70 -11
-88 0 -52 -15 -68 -72 -81 -29 -6 -63 -20 -75 -32 -80 -75 51 -135 272 -125
66 3 136 11 155 17 47 17 81 50 78 74 -4 24 -68 63 -120 71 -42 7 -50 22 -47
82 2 21 -3 48 -9 60 -12 22 -16 132 -6 168 3 11 23 28 44 38 22 10 64 43 94
74 131 130 180 341 146 630 -10 92 -24 121 -60 130 -14 3 -37 15 -51 26 -35
25 -140 47 -181 37 l-33 -8 40 -1 c63 -2 127 -20 168 -47 21 -14 42 -22 47
-19 5 3 17 -6 26 -20 13 -20 14 -28 4 -39 -6 -8 -17 -14 -23 -12 -7 1 -9 1 -4
-1 19 -11 4 -22 -25 -18 -24 4 -28 3 -13 -3 17 -8 17 -9 -9 -16 -15 -4 -44 -2
-63 5 -26 8 -41 8 -63 -1 -64 -27 -407 10 -437 47 -6 8 -14 14 -17 14 -21 -3
-26 1 -26 19 0 20 27 40 56 40 9 0 22 7 28 15 13 18 159 51 164 37 2 -6 17 -6
39 -2 19 5 52 6 72 4 25 -4 31 -2 21 4 -21 14 -135 19 -199 10z m-80 -193 c19
6 21 4 15 -19 -4 -15 -2 -26 4 -26 5 0 10 11 10 25 0 23 2 24 21 15 11 -6 38
-10 60 -9 27 2 43 -2 49 -11 6 -8 10 -10 10 -5 0 6 20 11 45 11 36 1 43 -1 35
-11 -8 -10 -8 -15 1 -21 7 -4 17 0 24 9 7 11 26 17 48 17 20 0 48 5 62 12 19
9 31 9 44 1 22 -13 97 -9 116 7 19 16 28 -6 21 -50 -2 -18 -1 -43 4 -55 6 -16
5 -25 -3 -28 -6 -2 -1 -6 11 -9 12 -4 20 -2 16 3 -3 5 -1 9 5 9 20 0 22 -23
12 -129 -17 -165 -57 -267 -142 -356 -107 -114 -211 -138 -327 -75 -142 76
-225 237 -238 464 -4 73 -3 97 5 86 6 -8 11 -10 11 -5 1 6 6 -1 11 -14 7 -18
6 -27 -3 -34 -9 -6 -8 -7 5 -3 11 3 17 0 17 -10 0 -8 -4 -13 -9 -9 -5 3 -13 0
-16 -6 -10 -14 -1 -21 19 -13 11 4 16 19 17 48 1 23 8 -6 16 -69 19 -145 82
-305 119 -305 11 0 9 11 -9 48 -32 63 -47 126 -61 257 l-11 110 -35 6 c-56 9
-83 27 -76 52 3 12 6 48 6 80 l0 58 35 -26 c24 -19 40 -25 56 -20z m607 -52
c-2 -39 -7 -67 -13 -65 -10 2 -15 86 -7 136 8 54 23 1 20 -71z m-319 -699 c2
-2 -9 -4 -25 -4 l-30 0 3 -62 c6 -94 11 -102 12 -20 1 62 4 72 19 72 14 0 15
-2 2 -10 -13 -8 -12 -10 3 -10 14 0 16 -4 8 -18 -8 -15 -5 -50 11 -122 2 -11
-11 -17 -47 -22 -41 -5 -37 -6 23 -3 48 1 72 -1 69 -8 -5 -17 -58 -28 -107
-22 -32 4 -41 3 -30 -4 8 -6 36 -11 61 -11 45 0 47 -1 53 -34 4 -19 13 -40 21
-46 13 -11 14 -10 9 6 -5 17 -4 17 5 2 7 -9 19 -14 30 -11 11 3 28 0 38 -7 15
-9 13 -11 -15 -7 -19 2 -37 -2 -44 -10 -8 -11 -7 -12 6 -7 9 3 16 4 16 0 0 -3
-32 -15 -71 -26 -62 -19 -77 -20 -120 -10 -27 7 -51 16 -54 20 -3 5 6 30 20
56 14 27 25 64 25 84 0 19 5 63 12 98 9 45 9 74 1 102 -5 22 -8 42 -5 45 6 6
93 -4 101 -11z m21 -64 c-6 -42 -8 -47 -9 -20 -1 34 8 84 14 78 2 -2 0 -28 -5
-58z m-182 -272 c-4 -12 -21 -23 -53 -33 -19 -6 -19 -7 -2 -16 13 -7 22 -7 32
1 20 16 57 -9 51 -34 -3 -13 -2 -16 6 -8 13 13 188 4 203 -10 7 -6 7 -9 0 -8
-20 4 -36 0 -31 -8 6 -10 -167 3 -236 18 -103 21 -118 63 -33 92 60 21 68 21
63 6z m312 -28 l-25 -8 25 -2 c14 -1 34 -6 45 -11 21 -10 -1 -8 -71 6 -16 3
-6 -3 21 -14 45 -17 48 -19 25 -25 -69 -17 -100 -11 -100 19 0 15 57 45 85 44
16 -1 16 -2 -5 -9z"/>
<path d="M1341 1861 c-1 -36 2 -52 9 -45 6 6 6 26 1 54 l-9 45 -1 -54z"/>
<path d="M1373 1855 c0 -33 2 -45 4 -27 2 18 2 45 0 60 -2 15 -4 0 -4 -33z"/>
<path d="M1249 1888 c-6 -18 -5 -56 2 -68 7 -12 8 -11 9 5 0 11 3 30 6 43 4
13 2 22 -5 22 -6 0 -11 -1 -12 -2z"/>
<path d="M1743 1789 c-7 -7 -36 -10 -77 -7 -70 4 -77 1 -24 -12 35 -9 -203 -3
-260 6 l-33 5 3 -114 c2 -65 7 -110 11 -103 5 6 6 -3 3 -22 -4 -23 -2 -31 6
-26 8 5 9 1 4 -12 -7 -19 51 -163 67 -164 5 0 5 5 2 10 -9 14 1 12 36 -5 16
-9 27 -20 24 -25 -3 -5 0 -12 6 -16 8 -5 9 -3 5 5 -5 8 -3 11 5 9 8 -1 15 2
17 7 2 6 10 21 19 34 8 13 11 21 5 17 -5 -3 -12 1 -16 9 -3 8 -10 15 -16 15
-6 0 -8 -5 -4 -12 4 -7 3 -8 -5 -4 -9 6 -9 11 0 22 9 11 8 14 -4 14 -9 0 -18
-4 -22 -10 -3 -5 -13 -7 -23 -4 -12 4 -13 3 -4 -3 9 -7 7 -12 -12 -21 -23 -10
-25 -8 -39 26 -16 39 -13 57 4 32 8 -11 9 -2 5 30 -9 77 -16 122 -22 131 -3 5
1 9 8 9 10 0 10 2 0 8 -6 5 -12 19 -12 33 0 13 -2 40 -5 59 -3 19 -2 28 2 20
6 -16 23 -30 36 -30 4 0 7 12 7 27 0 51 12 14 17 -54 3 -37 9 -93 13 -123 7
-43 8 -31 5 55 -2 75 -1 94 4 60 7 -44 8 -45 10 -15 1 27 4 31 11 20 12 -18
12 -156 1 -185 -9 -23 -3 -47 10 -39 5 3 9 21 9 40 0 34 1 34 43 33 l42 -1
-40 -13 c-49 -17 -20 -19 41 -4 46 12 56 24 27 32 -17 4 -17 5 0 6 19 1 24 21
5 21 -10 0 -10 3 0 9 13 8 16 25 20 119 2 34 22 46 22 13 0 -11 5 -21 11 -23
7 -2 7 -30 -1 -93 -7 -50 -14 -92 -17 -95 -2 -3 -2 36 1 85 l5 90 -12 -94
c-12 -91 -13 -95 -42 -108 l-30 -14 28 6 c58 12 77 54 90 190 3 32 4 28 5 -17
1 -31 7 -60 13 -64 8 -5 10 18 7 85 -2 50 -1 91 4 91 4 0 9 -30 10 -67 l1 -68
7 55 c6 52 7 53 8 13 2 -43 22 -72 22 -32 0 12 3 20 6 16 8 -8 -16 -144 -32
-182 -10 -24 -13 -26 -14 -10 -1 15 -4 12 -12 -10 -6 -16 -15 -36 -21 -43 -5
-7 -7 -15 -4 -18 3 -3 12 7 21 23 8 15 15 24 16 20 0 -16 -29 -63 -56 -87 -15
-14 -23 -18 -19 -10 8 13 7 13 -8 1 -28 -22 -29 -7 -2 19 14 13 25 18 25 11 0
-7 5 -9 10 -6 6 3 10 11 10 16 0 6 -4 7 -10 4 -14 -8 -13 -2 5 31 8 16 15 36
14 44 0 8 -11 -7 -24 -35 -14 -27 -43 -66 -64 -86 -22 -20 -33 -36 -25 -36 8
0 14 5 14 10 0 6 3 7 6 4 4 -3 15 -2 25 4 33 17 20 1 -17 -22 -39 -24 -128
-36 -119 -16 3 7 0 5 -6 -4 -11 -15 -16 -15 -46 -2 -19 7 -38 11 -43 8 -5 -3
-12 0 -16 6 -4 8 -3 9 4 5 18 -11 14 0 -5 15 -11 10 -14 10 -9 2 4 -7 4 -13 1
-13 -11 0 -56 38 -56 47 1 4 -4 8 -9 8 -6 0 -15 7 -20 15 -5 8 -13 15 -17 16
-20 2 -42 17 -37 25 3 5 0 9 -6 9 -6 0 -8 5 -5 10 3 6 2 10 -3 10 -5 0 -15 14
-22 30 -7 17 -15 28 -18 26 -10 -10 53 -121 92 -165 103 -111 264 -122 380
-25 81 69 137 189 140 300 2 38 6 76 11 84 5 8 4 11 -2 7 -5 -3 -10 0 -10 8 0
8 4 12 9 9 4 -3 8 -2 9 3 0 4 2 18 3 31 5 40 -63 69 -91 41z m-194 -171 c2 24
21 1 21 -26 0 -15 4 -22 8 -16 5 7 13 5 27 -9 20 -20 20 -20 -2 -14 -13 3 -23
1 -23 -4 0 -22 -19 -6 -22 19 -2 19 -8 27 -20 26 -19 -2 -22 7 -11 46 l7 25 7
-30 c4 -16 7 -24 8 -17z m-145 -92 c7 -36 10 -66 5 -66 -5 0 -9 7 -9 16 0 8
-3 13 -7 11 -5 -3 -8 7 -8 21 -1 15 -4 47 -8 72 -12 69 10 25 27 -54z m145 32
c-2 -29 -2 -30 -7 -8 l-5 25 -8 -25 -7 -25 -1 27 c-1 22 5 30 27 37 1 1 1 -14
1 -31z m-9 -191 c10 3 11 2 4 -4 -6 -4 -10 -16 -8 -26 2 -17 0 -17 -29 2 -17
11 -34 26 -36 33 -2 8 4 6 16 -4 28 -25 40 -22 17 5 -19 22 -19 22 1 6 11 -9
27 -14 35 -12z"/>
<path d="M1430 1681 c8 -6 10 -11 5 -11 -7 0 -8 -24 -4 -72 4 -40 8 -82 8 -92
1 -14 4 -17 11 -10 17 17 -1 186 -20 191 -13 4 -13 3 0 -6z"/>
<path d="M1590 1484 l-55 -14 48 4 c27 2 54 9 60 15 6 6 9 10 7 10 -3 -1 -30
-8 -60 -15z"/>
<path d="M1660 1425 c-6 -20 -23 -50 -38 -68 l-25 -32 31 30 c32 31 70 105 53
105 -5 0 -15 -16 -21 -35z"/>
<path d="M1565 1440 c27 -7 27 -8 6 -9 -13 0 -22 -4 -18 -7 3 -3 21 -3 39 1
29 7 30 9 13 16 -11 4 -31 7 -45 7 -23 0 -22 -1 5 -8z"/>
<path d="M1629 1413 c-6 -16 -18 -37 -27 -49 -9 -11 -2 -5 16 13 17 18 32 40
32 48 0 23 -9 18 -21 -12z"/>
<path d="M1582 1413 c-19 -4 -21 -7 -11 -19 15 -18 29 -18 29 0 0 8 6 17 13
19 14 6 1 6 -31 0z"/>
<path d="M1435 1191 c5 -8 12 -42 16 -75 l8 -61 -3 63 c-1 36 -8 67 -16 75
-10 10 -11 9 -5 -2z"/>
<path d="M1460 926 c0 -8 -3 -21 -6 -29 -4 -11 0 -15 13 -13 10 2 19 12 21 24
2 12 12 23 25 25 13 3 6 5 -15 6 -27 1 -38 -3 -38 -13z"/>
<path d="M1580 2065 c-53 -13 -51 -15 15 -20 17 -1 42 -7 58 -13 15 -6 27 -7
27 -3 0 5 -14 12 -30 16 -17 4 -27 11 -24 16 3 6 13 8 21 5 8 -3 11 -1 8 4 -3
6 -9 9 -13 9 -4 -1 -32 -7 -62 -14z"/>
<path d="M1308 2009 c-8 -5 19 -9 66 -9 44 0 77 2 74 5 -9 9 -126 12 -140 4z"/>
<path d="M794 1329 c14 -11 24 -25 21 -30 -4 -5 22 -9 60 -9 42 0 64 4 60 10
-3 6 1 10 10 10 9 0 13 -4 10 -10 -4 -6 7 -10 26 -10 l31 0 -23 20 c-17 14
-19 18 -6 14 11 -4 17 -1 17 10 0 13 -11 16 -62 15 -35 0 -57 -3 -50 -6 6 -2
12 -13 12 -24 0 -28 -35 -24 -58 6 -13 16 -30 25 -47 25 l-28 0 27 -21z"/>
<path d="M1020 1335 c-10 -12 -10 -18 0 -30 19 -23 40 -18 37 7 -1 18 3 23 23
25 14 1 18 0 9 -3 -23 -7 -12 -44 12 -44 11 0 19 6 19 14 0 8 6 17 13 19 7 3
5 6 -5 6 -10 1 -18 6 -18 11 0 16 -76 12 -90 -5z"/>
<path d="M1860 1333 c0 -13 3 -14 12 -5 7 7 18 12 25 12 22 0 14 -19 -14 -34
l-28 -15 45 1 c25 0 37 2 27 5 -17 4 -17 5 -1 17 24 18 9 36 -32 36 -25 0 -34
-4 -34 -17z"/>
<path d="M1961 1336 c-22 -26 -6 -48 31 -44 28 2 33 7 33 28 0 19 -6 26 -26
28 -14 2 -31 -4 -38 -12z"/>
<path d="M2040 1333 c0 -13 3 -14 12 -5 17 17 41 15 34 -3 -6 -17 2 -19 23 -6
22 14 3 31 -35 31 -25 0 -34 -4 -34 -17z"/>
<path d="M2130 1341 c0 -5 9 -7 20 -4 19 5 26 -9 21 -39 0 -5 8 -8 20 -8 15 0
19 4 15 16 -3 9 -6 22 -6 30 0 9 -11 14 -35 14 -19 0 -35 -4 -35 -9z"/>
<path d="M2048 1299 c-8 -6 3 -9 30 -9 23 0 42 3 42 8 0 10 -56 11 -72 1z"/>
<path d="M813 2359 c-7 -7 -5 -22 8 -49 11 -22 19 -42 19 -45 0 -8 -64 26 -72
39 -5 7 -17 2 -35 -16 -23 -23 -24 -28 -10 -28 10 0 40 -11 68 -25 75 -38 78
-32 46 88 -9 33 -16 44 -24 36z"/>
<path d="M2208 2331 c-1 -5 -29 -20 -61 -33 -50 -21 -56 -26 -43 -38 11 -8 16
-9 16 -1 0 15 21 13 44 -4 14 -11 16 -18 8 -27 -8 -10 -2 -22 24 -50 l34 -37
32 29 c17 16 34 28 36 25 2 -2 -4 -27 -13 -55 -16 -48 -16 -53 -1 -68 14 -15
17 -15 28 0 7 9 29 27 50 41 24 16 34 28 28 37 -6 9 -16 4 -39 -21 -34 -38
-38 -31 -17 29 13 35 12 43 0 61 l-15 21 -26 -24 c-34 -32 -71 -51 -80 -42 -4
4 3 37 15 72 18 51 20 69 11 80 -13 16 -26 18 -31 5z m-8 -33 c0 -7 -5 -20
-10 -28 -7 -12 -12 -12 -22 -2 -9 9 -8 15 8 27 24 18 24 18 24 3z"/>
<path d="M639 2179 c-41 -45 -47 -59 -26 -59 7 0 30 -16 51 -35 l38 -35 18 23
c18 21 18 22 -1 29 -11 4 -34 21 -51 37 -28 26 -30 31 -15 37 27 10 49 -3 42
-26 -5 -16 -2 -20 19 -20 14 0 26 -5 26 -12 0 -6 11 -1 25 12 34 31 32 40 -9
40 -28 0 -35 4 -38 22 -5 38 -36 33 -79 -13z"/>
<path d="M547 2042 l-26 -48 35 -13 c20 -7 45 -22 56 -33 11 -11 21 -18 22
-16 2 2 15 24 30 49 23 41 25 48 11 59 -13 11 -15 8 -15 -18 0 -38 -11 -46
-36 -27 -18 14 -18 16 -1 29 16 12 16 14 1 20 -23 9 -24 8 -24 -14 0 -23 -13
-26 -29 -6 -10 12 -8 19 7 34 19 19 19 32 2 32 -4 0 -19 -22 -33 -48z"/>
<path d="M2380 2050 c-30 -5 -58 -6 -62 -4 -5 3 -8 -2 -8 -11 0 -11 6 -14 23
-10 18 5 26 1 35 -20 10 -21 9 -27 -3 -31 -13 -5 -12 -10 1 -37 15 -28 17 -29
27 -11 6 10 25 38 44 60 32 40 37 76 9 73 -6 -1 -36 -5 -66 -9z m30 -30 c-13
-24 -26 -26 -33 -6 -6 15 6 24 31 25 10 1 10 -4 2 -19z"/>
<path d="M490 1918 c-11 -18 -20 -39 -20 -46 0 -21 47 -62 73 -62 55 0 92 96
47 120 -24 13 -26 3 -5 -20 33 -36 -13 -72 -62 -48 -35 17 -37 43 -3 43 18 0
25 5 25 20 0 34 -33 30 -55 -7z"/>
<path d="M2465 1919 c-22 -10 -48 -19 -59 -19 -14 0 -17 -5 -12 -25 15 -58 26
-75 48 -74 l23 0 -22 16 c-13 8 -23 21 -23 28 0 13 76 42 98 37 15 -4 15 7 -1
34 -12 21 -12 21 -52 3z"/>
<path d="M1030 630 c-38 -38 -23 -88 37 -119 19 -9 24 -8 33 9 10 18 8 19 -19
14 -26 -5 -32 -2 -42 19 -10 22 -9 31 5 52 21 31 65 35 73 5 6 -24 19 -26 27
-5 3 10 -5 20 -24 30 -39 20 -66 19 -90 -5z"/>
<path d="M1892 633 c-10 -4 -10 -8 -1 -19 6 -7 9 -36 7 -64 -2 -39 0 -49 10
-45 8 3 18 5 24 5 5 0 2 7 -6 16 -21 21 -20 31 5 45 22 11 35 5 41 -21 2 -13
7 -14 25 -5 20 11 19 13 -33 53 -30 23 -55 42 -57 41 -1 0 -8 -3 -15 -6z"/>
<path d="M1164 602 c10 -16 -12 -84 -32 -99 -14 -12 -14 -13 0 -13 9 0 29 -7
44 -15 40 -20 54 -19 54 6 0 18 -3 19 -15 9 -19 -16 -45 -6 -45 18 0 28 11 34
30 17 16 -14 18 -14 23 5 4 17 2 20 -13 15 -24 -8 -33 8 -16 30 12 17 14 17
34 -3 27 -27 32 -27 32 -3 0 14 -10 21 -36 25 -19 4 -43 10 -51 13 -11 4 -14
2 -9 -5z"/>
<path d="M1802 603 c-21 -4 -22 -6 -9 -21 24 -29 39 -83 26 -98 -8 -10 -8 -14
-1 -14 6 0 14 5 17 10 3 6 16 11 28 11 16 1 17 3 5 6 -22 6 -50 87 -35 102 11
11 9 12 -31 4z"/>
<path d="M1723 578 c-26 -7 -33 -14 -33 -33 0 -18 7 -26 25 -31 34 -8 52 -31
36 -47 -9 -9 -16 -9 -31 1 -26 16 -29 15 -23 -8 4 -16 11 -19 32 -14 62 15 70
57 16 80 -19 8 -35 21 -35 29 0 18 21 20 38 3 15 -15 22 -8 13 13 -5 12 -13
14 -38 7z"/>
<path d="M1284 527 c0 -34 -6 -54 -17 -62 -15 -11 -14 -13 14 -19 18 -3 34 -4
37 -1 3 3 0 5 -6 5 -7 0 -12 11 -12 25 0 36 19 31 36 -10 10 -24 21 -35 35
-35 19 0 19 2 -6 34 -26 34 -26 34 -6 41 23 7 28 39 9 51 -6 4 -28 10 -47 14
l-36 6 -1 -49z m63 22 c16 -16 5 -39 -18 -39 -12 0 -19 7 -19 18 0 31 17 41
37 21z"/>
<path d="M1615 559 c-22 -4 -57 -8 -77 -8 -27 -1 -36 -5 -32 -15 3 -7 -1 -29
-9 -47 l-15 -34 -16 38 c-9 21 -14 42 -11 47 4 6 -5 10 -18 10 l-24 0 30 -62
c16 -35 31 -65 33 -67 2 -3 16 23 31 57 18 40 34 62 44 62 28 0 40 -84 17
-109 -11 -11 -10 -13 5 -7 10 3 36 6 58 6 35 0 39 2 39 26 l0 26 -18 -23 c-22
-27 -52 -20 -52 12 0 17 4 20 24 15 21 -5 23 -3 19 15 -4 14 -9 17 -16 10 -18
-18 -27 -13 -27 14 0 27 26 35 48 13 9 -9 12 -7 12 10 0 12 -1 21 -2 21 -2 -1
-21 -5 -43 -10z"/>
</g>
</svg>
