<?xml version="1.0" standalone="no"?>
<!DOCTYPE svg PUBLIC "-//W3C//DTD SVG 20010904//EN"
 "http://www.w3.org/TR/2001/REC-SVG-20010904/DTD/svg10.dtd">
<svg version="1.0" xmlns="http://www.w3.org/2000/svg"
 width="300.000000pt" height="300.000000pt" viewBox="0 0 300.000000 300.000000"
 preserveAspectRatio="xMidYMid meet">
<metadata>
Created by potrace 1.10, written by Peter Selinger 2001-2011
</metadata>
<g transform="translate(0.000000,300.000000) scale(0.100000,-0.100000)"
fill="#000000" stroke="none">
<path d="M1350 2714 c-53 -6 -143 -24 -165 -33 -11 -5 -40 -15 -65 -22 -46
-13 -159 -60 -195 -81 -11 -6 -41 -23 -67 -36 -27 -14 -48 -29 -48 -33 0 -5
-6 -9 -14 -9 -8 0 -17 -7 -20 -16 -3 -8 -10 -13 -15 -10 -15 10 -198 -173
-254 -253 -50 -71 -127 -216 -142 -268 -3 -13 -11 -23 -16 -23 -6 0 -7 -4 -4
-10 3 -5 0 -20 -6 -32 -7 -13 -14 -30 -15 -38 -1 -8 -7 -31 -13 -50 -17 -54
-40 -268 -36 -335 9 -141 26 -254 45 -300 4 -11 13 -36 20 -55 20 -57 26 -73
49 -118 11 -24 21 -50 21 -58 0 -8 3 -14 8 -14 4 0 15 -18 24 -39 27 -62 128
-190 214 -270 80 -75 154 -131 173 -131 6 0 11 -5 11 -11 0 -5 4 -8 9 -4 6 3
13 -1 18 -9 18 -33 275 -131 408 -157 98 -19 369 -16 461 4 365 82 656 300
836 628 194 351 183 857 -27 1184 -19 30 -35 60 -35 65 0 6 -4 10 -10 10 -5 0
-10 6 -10 14 0 8 -3 16 -8 18 -4 2 -23 23 -42 48 -49 63 -124 134 -200 191
-36 27 -74 56 -85 65 -51 40 -261 133 -355 157 -92 22 -140 28 -265 31 -82 3
-166 2 -185 0z m430 -42 c474 -127 810 -479 901 -945 34 -173 22 -412 -28
-572 -115 -370 -391 -659 -753 -790 -242 -87 -556 -87 -800 0 -687 247 -999
1031 -670 1685 110 218 311 416 535 528 105 52 223 90 365 116 14 2 104 3 200
1 135 -2 192 -8 250 -23z"/>
<path d="M1450 2682 c-163 -9 -346 -55 -471 -117 -346 -174 -595 -514 -649
-885 -15 -97 -15 -276 0 -365 79 -501 485 -906 985 -985 92 -15 260 -15 364 0
370 51 709 300 879 643 86 175 122 329 122 527 0 198 -36 352 -122 527 -114
230 -304 420 -537 538 -153 77 -398 127 -571 117z m250 -37 c476 -84 856 -460
944 -934 21 -108 21 -314 0 -422 -66 -357 -300 -666 -629 -831 -335 -169 -761
-156 -1091 33 -663 379 -784 1293 -243 1830 170 169 385 282 614 323 106 19
300 20 405 1z"/>
<path d="M1380 2640 c-135 -15 -236 -44 -362 -102 -38 -17 -65 -35 -61 -41 3
-6 1 -7 -6 -3 -21 13 -154 -80 -256 -180 -109 -107 -188 -222 -247 -364 -70
-165 -90 -269 -90 -450 0 -181 20 -285 90 -450 129 -307 386 -541 702 -639
157 -48 197 -54 355 -54 163 1 250 16 395 69 73 27 125 54 104 54 -6 0 -14 -3
-18 -7 -6 -7 -39 -19 -121 -47 -22 -8 -65 -19 -95 -26 -30 -6 -71 -16 -91 -21
-51 -13 -291 -11 -363 2 -61 12 -218 56 -246 69 -193 94 -258 139 -379 261
-80 81 -121 130 -121 147 0 6 -3 12 -8 12 -4 0 -23 30 -42 68 -19 37 -38 69
-42 70 -5 2 -8 10 -8 18 0 8 -4 22 -9 32 -21 42 -32 72 -50 142 -20 78 -45
239 -39 246 2 2 19 -7 36 -19 29 -20 32 -26 26 -59 -5 -31 -1 -41 20 -63 14
-14 34 -25 46 -25 20 0 69 26 81 43 3 4 13 -24 23 -63 15 -65 43 -130 107
-250 13 -25 26 -47 30 -50 3 -3 18 -23 34 -45 17 -22 43 -54 60 -71 38 -38
152 -123 183 -135 30 -11 28 -35 -5 -63 -34 -30 -37 -81 -8 -114 22 -24 131
-68 204 -83 24 -5 49 -13 55 -18 16 -12 105 -20 112 -10 3 5 -2 9 -10 9 -9 0
-22 16 -30 35 -8 19 -20 35 -25 35 -15 0 -14 -33 2 -49 10 -11 8 -13 -13 -7
-14 3 -31 6 -39 6 -12 0 -12 2 1 13 21 16 33 84 18 102 -10 12 -5 13 27 8 21
-3 46 -10 56 -15 23 -12 22 -47 -3 -56 -20 -7 -19 -9 7 -41 l28 -33 1 27 c2
28 14 47 20 30 12 -32 46 -75 59 -75 13 0 47 43 59 75 5 16 16 1 18 -27 2 -29
28 -27 28 2 0 39 -13 80 -26 80 -8 0 -28 -28 -45 -62 l-32 -63 -33 70 c-19 39
-34 70 -34 70 0 1 55 -3 60 -4 3 -1 -1 -5 -8 -9 -10 -7 -9 -17 4 -48 l17 -39
14 33 c15 38 9 72 -13 72 -8 0 -14 5 -14 10 0 16 27 11 34 -6 5 -13 17 -15 66
-10 32 4 65 9 73 12 20 7 29 -32 11 -47 -8 -7 -13 -18 -10 -26 4 -10 -1 -12
-19 -7 -25 6 -30 -1 -19 -30 6 -17 32 -11 50 11 9 11 12 9 16 -12 5 -23 3 -25
-36 -25 -22 0 -48 -5 -56 -11 -11 -7 0 -8 39 -4 62 6 85 20 77 48 -3 14 -1 17
12 12 52 -22 69 6 20 31 -57 29 -58 55 -5 73 30 11 46 3 47 -21 0 -11 -18 -10
-25 2 -9 15 -35 12 -35 -3 0 -7 16 -21 35 -30 51 -25 49 -59 -7 -80 -23 -9
-39 -20 -35 -23 3 -4 14 -3 24 1 10 5 25 9 33 11 8 2 19 9 25 16 5 7 25 14 44
14 51 2 74 35 68 98 -2 28 -10 52 -16 54 -6 2 -8 8 -5 14 4 6 -2 6 -14 -1 -14
-7 -23 -8 -27 -1 -7 11 1 13 50 14 22 1 41 -10 70 -36 45 -42 74 -52 53 -18
-7 11 -16 20 -20 20 -13 0 -58 43 -53 51 3 4 -5 5 -17 2 -17 -4 -13 2 14 21
20 14 40 26 43 26 15 0 117 82 175 141 173 175 269 405 270 644 0 183 -68 404
-162 526 -15 20 -25 39 -21 43 3 3 -1 6 -10 6 -9 0 -17 4 -17 9 0 21 -131 140
-207 190 -46 29 -80 57 -77 62 3 5 -2 6 -10 3 -8 -3 -20 -3 -27 1 -20 13 11
24 42 15 16 -5 29 -6 29 -3 0 3 9 -2 20 -12 11 -10 20 -24 20 -31 0 -7 6 -11
13 -8 7 2 34 -9 60 -26 25 -18 51 -29 57 -25 6 3 10 -3 10 -16 0 -22 75 -99
96 -99 6 0 14 -12 18 -27 3 -16 19 -44 35 -63 21 -25 29 -29 25 -15 -5 18 1
20 53 23 32 2 63 8 70 13 8 7 15 4 23 -11 10 -18 7 -27 -17 -57 -15 -19 -35
-46 -43 -59 -19 -30 -22 -30 -37 3 -11 22 -10 28 3 37 14 11 13 15 -5 36 -11
14 -21 23 -22 20 -3 -15 -4 -98 0 -95 6 6 31 -44 31 -61 0 -16 19 -51 39 -73
12 -13 13 -12 6 9 -4 14 -13 40 -21 58 -12 29 -11 32 5 32 24 0 88 27 96 40 8
13 -1 13 -27 -1 -19 -10 -20 -9 -14 17 4 16 14 36 21 44 11 13 11 20 0 48 -15
34 -16 34 -85 16 -8 -2 -21 0 -28 5 -10 6 -5 16 20 40 l33 32 -21 18 c-12 9
-29 34 -39 54 -9 20 -21 37 -26 37 -13 0 -11 -11 6 -30 13 -14 13 -22 0 -65
-8 -26 -13 -50 -11 -52 2 -2 15 10 30 27 14 17 30 28 36 25 16 -10 12 -20 -17
-37 -16 -9 -39 -26 -51 -38 -21 -20 -26 -21 -39 -8 -13 14 -13 21 1 68 9 30
15 55 13 56 -1 2 -17 -10 -34 -26 l-31 -29 -39 38 c-32 33 -36 40 -23 49 13 9
12 12 -5 26 -24 18 -45 21 -45 5 0 -8 -5 -7 -16 1 -13 12 -7 17 43 38 32 13
61 29 65 36 5 8 13 6 25 -7 16 -16 16 -19 -1 -65 -27 -70 -31 -92 -14 -92 17
0 88 58 88 72 0 6 -7 5 -16 -3 -27 -23 -47 -21 -39 4 4 12 9 37 12 55 3 17 8
32 11 32 3 0 22 -15 42 -32 32 -30 31 -29 -5 10 -22 23 -45 40 -53 37 -7 -2
-10 -1 -7 5 16 26 -231 183 -275 174 -21 -4 -22 -3 -5 5 18 7 16 10 -20 26
-59 25 -195 65 -219 64 -15 -1 -12 -4 12 -11 41 -14 41 -24 -1 -23 -36 2 -87
24 -54 25 25 0 21 17 -5 23 -43 10 -243 15 -308 7z m34 -37 c-4 -16 -15 -50
-25 -78 -23 -62 -23 -66 0 -38 11 13 25 45 32 73 18 71 40 67 81 -12 18 -35
34 -66 36 -70 2 -5 -12 -8 -32 -8 -29 0 -36 4 -36 19 0 16 -5 18 -27 12 -16
-4 -28 -13 -28 -20 0 -6 -7 -16 -15 -21 -12 -8 -11 -10 7 -10 12 0 23 6 26 13
3 9 7 9 18 0 8 -6 46 -13 84 -14 39 -1 82 -6 98 -12 15 -5 38 -6 52 -3 20 5
24 13 27 49 2 23 8 41 13 39 6 -1 8 -21 7 -43 -2 -22 2 -46 8 -54 15 -18 77
-20 83 -2 3 7 8 5 13 -8 10 -24 24 -40 44 -47 12 -5 12 -7 -3 -13 -10 -4 -32
0 -52 9 -19 9 -37 17 -40 17 -2 0 -26 6 -52 14 -101 28 -204 34 -365 20 -51
-5 -78 -4 -78 3 0 6 6 12 13 15 6 2 9 8 5 12 -4 4 -20 3 -37 -3 -25 -9 -30 -8
-34 9 -4 15 -10 17 -29 10 -13 -5 -23 -17 -23 -27 0 -10 -8 -20 -17 -22 -15
-3 -16 1 -7 30 5 18 9 51 9 74 0 33 4 43 20 47 14 4 29 -7 57 -42 42 -52 54
-62 65 -55 9 6 -33 68 -67 100 -31 28 -23 34 65 50 105 19 111 19 104 -13z
m148 15 c-7 -7 -12 -20 -12 -30 0 -25 -31 -23 -37 2 -3 11 -9 20 -14 20 -5 0
-9 5 -9 10 0 6 19 10 42 10 33 0 39 -3 30 -12z m118 -38 c23 -12 27 -48 5 -56
-13 -5 -13 -10 1 -36 9 -16 14 -31 12 -33 -2 -1 -18 0 -36 2 -22 4 -31 10 -28
18 2 7 -2 21 -9 32 -13 17 -14 16 -15 -13 0 -28 -2 -30 -29 -26 -28 4 -29 6
-19 33 6 16 8 46 6 65 l-4 36 48 -5 c26 -3 57 -11 68 -17z m230 -26 l25 -14
-30 6 c-16 4 -41 13 -55 20 l-25 14 30 -6 c17 -4 41 -13 55 -20z m-762 -33 c1
-28 -3 -53 -8 -56 -6 -3 -10 -1 -10 5 0 6 -5 8 -12 4 -7 -5 -8 -3 -3 5 10 17
-14 61 -34 61 -11 1 -7 6 9 15 45 26 55 20 58 -34z m667 35 c31 -8 51 -19 53
-30 2 -9 -1 -16 -7 -16 -6 0 -11 5 -11 10 0 6 -6 10 -13 10 -14 0 -41 -86 -31
-101 3 -6 -5 -7 -23 -3 -41 10 -43 12 -28 42 8 15 17 40 21 56 6 26 5 28 -15
21 -15 -5 -21 -2 -21 9 0 19 9 19 75 2z m185 -88 c0 -10 -4 -18 -10 -18 -5 0
-10 6 -10 14 0 19 -32 30 -42 14 -13 -21 -9 -28 13 -28 15 0 19 -4 15 -16 -3
-9 -6 -18 -6 -20 0 -2 -4 -4 -10 -4 -5 0 -10 7 -10 15 0 21 -17 19 -29 -4 -13
-23 -5 -31 31 -31 15 0 28 -4 28 -9 0 -21 -21 -20 -67 1 -26 12 -49 23 -51 24
-1 1 9 21 23 45 13 24 25 51 25 61 0 15 5 14 50 -5 34 -14 50 -27 50 -39z
m-915 -13 c-6 -56 -5 -64 8 -59 9 3 18 12 21 20 7 19 28 18 24 -2 -2 -9 -27
-27 -57 -40 l-53 -24 7 65 c7 68 -3 85 -26 44 -9 -17 -13 -19 -20 -8 -4 8 -4
18 1 23 10 10 80 44 93 45 5 1 5 -28 2 -64z m1014 8 c106 -65 120 -76 121 -91
0 -7 5 -10 10 -7 6 3 10 4 10 1 0 -4 -55 -33 -104 -55 -13 -6 3 82 17 91 8 5
6 8 -5 8 -10 0 -18 4 -18 10 0 16 -48 42 -81 44 -23 1 -34 8 -40 24 -12 33 4
28 90 -25z m-1168 -45 c-33 -9 -36 -15 -21 -38 9 -13 12 -12 26 5 13 17 16 18
24 5 14 -21 12 -30 -4 -24 -21 8 -30 -16 -13 -34 13 -13 19 -13 31 -2 9 7 16
19 16 27 0 8 5 11 10 8 20 -12 9 -30 -34 -57 -52 -34 -52 -34 -60 -5 -3 13
-17 36 -31 51 -14 16 -24 30 -22 32 2 3 22 18 43 34 30 22 42 26 53 17 11 -9
7 -13 -18 -19z m1176 0 c23 -22 31 -58 13 -58 -5 0 -16 16 -24 35 -8 19 -20
35 -25 35 -16 0 -13 -11 13 -55 28 -46 21 -75 -20 -75 -32 0 -86 52 -78 75 9
24 29 13 32 -19 2 -15 10 -30 18 -33 26 -10 26 4 3 44 -13 23 -20 47 -16 56 9
24 56 21 84 -5z m-860 -14 c2 -6 -19 -16 -47 -23 -27 -7 -50 -17 -50 -22 0 -5
-5 -9 -10 -9 -7 0 -7 6 0 20 6 11 17 20 24 20 8 0 19 7 26 15 13 16 52 15 57
-1z m531 -42 c290 -98 492 -305 590 -602 20 -62 25 -102 29 -225 4 -130 2
-162 -16 -239 -81 -340 -336 -595 -676 -677 -123 -29 -311 -27 -435 6 -301 81
-535 301 -632 595 -28 85 -32 111 -36 243 -5 161 4 226 44 341 82 235 297 458
524 542 123 45 180 54 350 51 155 -3 171 -5 258 -35z m-932 -62 c28 -90 18
-102 -55 -66 -28 14 -58 26 -68 26 -14 0 -13 5 10 28 18 18 30 23 35 16 8 -13
72 -47 72 -39 0 3 -9 24 -20 47 -18 38 -19 58 -2 58 4 0 17 -32 28 -70z m82
-57 c-5 -26 -38 -29 -38 -4 0 15 6 21 21 21 14 0 19 -5 17 -17z m-210 -51 c3
-18 10 -22 38 -22 41 0 43 -9 9 -40 -14 -13 -25 -18 -25 -12 0 7 -12 12 -26
12 -21 0 -24 4 -19 20 7 23 -15 36 -42 25 -16 -6 -13 -11 17 -37 19 -16 42
-33 52 -36 15 -6 15 -9 -2 -29 l-18 -23 -38 35 c-21 19 -44 35 -51 35 -21 0
-15 14 26 59 43 46 74 51 79 13z m132 -12 c0 -5 -9 -14 -20 -20 -11 -6 -20 -9
-20 -6 0 2 -3 11 -6 20 -5 12 0 16 20 16 14 0 26 -4 26 -10z m-250 -98 c0 -4
-10 -16 -22 -26 -21 -18 -21 -19 -2 -33 17 -13 19 -12 22 6 2 12 10 21 17 21
22 0 27 -18 8 -29 -17 -10 -17 -12 1 -26 23 -17 36 -5 36 34 0 20 2 22 15 11
14 -11 12 -18 -11 -59 -15 -25 -28 -48 -30 -50 -1 -1 -13 6 -25 18 -13 12 -38
26 -56 33 l-32 12 26 48 c14 26 32 48 40 48 7 0 13 -3 13 -8z m-52 -154 c-2
-17 -10 -23 -28 -23 -34 0 -32 -26 3 -43 50 -24 95 12 61 50 -20 21 -11 37 11
18 22 -18 19 -76 -5 -100 -27 -27 -66 -25 -96 6 -28 27 -27 63 3 97 24 26 55
23 51 -5z m-103 -57 c-8 -28 39 -79 80 -87 19 -3 48 -1 64 4 22 8 29 8 26 -1
-2 -7 -9 -33 -15 -59 -7 -27 -15 -48 -19 -48 -3 0 -17 9 -31 20 -33 26 -61 25
-95 -2 -24 -19 -27 -26 -22 -62 5 -36 2 -44 -23 -64 -16 -12 -31 -18 -34 -13
-10 16 19 193 44 271 4 14 11 33 14 43 3 9 8 17 11 17 4 0 4 -8 0 -19z m101
-206 c9 -22 -15 -55 -39 -55 -29 0 -47 18 -47 47 0 42 71 49 86 8z m-16 -115
c43 -43 11 -120 -50 -120 -38 0 -70 32 -70 70 0 38 32 70 70 70 17 0 39 -9 50
-20z m12 -186 c11 -23 10 -29 -10 -45 -28 -22 -66 -12 -70 20 -8 52 59 72 80
25z m575 -726 c22 -8 32 -17 28 -26 -3 -7 -5 -18 -5 -23 0 -19 -19 -8 -22 14
-5 34 -58 31 -76 -5 -19 -41 0 -72 39 -64 30 6 35 1 20 -23 -7 -10 -13 -11
-32 -1 -62 32 -78 81 -39 120 23 23 41 25 87 8z m718 -39 c-10 -30 14 -99 34
-99 23 0 1 -16 -33 -24 -24 -6 -27 -5 -18 6 16 20 -5 86 -32 100 -18 10 -17
12 15 23 19 7 35 13 37 14 2 0 0 -9 -3 -20z m40 1 c9 -28 -4 -68 -16 -49 -12
19 -11 69 0 69 5 0 13 -9 16 -20z m-647 -5 c32 -7 45 -36 22 -50 -5 -3 -10 1
-10 9 0 8 -9 20 -20 26 -15 8 -21 6 -30 -9 -11 -22 0 -34 23 -25 12 4 14 0 10
-16 -5 -20 -7 -20 -24 -4 -17 15 -19 15 -25 0 -8 -21 2 -46 19 -46 7 0 24 10
37 22 12 12 20 15 16 7 -3 -8 -9 -22 -12 -31 -8 -22 -15 -22 -59 -4 -19 8 -35
13 -35 10 0 -3 -5 -2 -11 1 -7 5 -5 11 4 18 19 15 41 83 31 98 -4 7 0 9 12 6
11 -3 34 -8 52 -12z m-120 -23 c2 -14 -2 -22 -11 -22 -17 0 -26 19 -19 38 7
19 27 9 30 -16z"/>
<path d="M1186 2504 c-9 -25 -7 -34 8 -34 22 0 26 13 11 33 -11 16 -13 16 -19
1z"/>
<path d="M1620 2572 c0 -6 -3 -18 -6 -27 -5 -13 -2 -16 17 -13 29 4 34 41 7
46 -10 2 -18 -1 -18 -6z"/>
<path d="M1353 2375 c-383 -69 -662 -349 -729 -730 -25 -145 -13 -291 39 -441
31 -89 48 -122 110 -211 205 -299 591 -443 940 -354 257 66 463 232 580 466
174 349 98 776 -187 1042 -200 187 -491 276 -753 228z m330 -21 c214 -48 416
-183 537 -359 50 -73 108 -204 130 -296 27 -115 27 -283 0 -399 -80 -331 -347
-589 -679 -656 -102 -20 -302 -15 -396 11 -87 24 -230 95 -307 154 -149 113
-273 305 -318 491 -27 116 -27 284 0 399 50 207 183 404 353 520 73 50 205
109 293 130 102 25 286 27 387 5z"/>
<path d="M1355 2345 c-445 -71 -763 -496 -707 -945 20 -158 71 -286 162 -410
354 -478 1077 -459 1406 37 44 67 107 208 101 226 -2 6 -9 -6 -17 -28 -25 -80
-85 -188 -140 -253 -256 -306 -659 -398 -1020 -234 -99 45 -206 127 -277 213
-61 74 -67 83 -83 114 -8 17 -18 32 -21 35 -9 8 -67 161 -79 209 -28 108 -20
331 16 438 24 74 97 222 106 217 4 -3 8 1 8 8 0 7 14 29 30 48 16 19 30 39 30
44 0 5 3 6 7 3 3 -4 11 3 17 15 13 25 106 102 165 136 74 43 97 53 182 83 93
33 97 34 264 33 160 0 175 -2 250 -28 307 -107 500 -321 575 -636 10 -41 19
-66 19 -54 2 36 -36 168 -67 237 -123 271 -379 461 -667 496 -110 13 -157 13
-260 -4z"/>
<path d="M1430 2188 c0 -21 -11 -23 -28 -6 -8 8 -12 9 -12 1 0 -7 -26 -17 -57
-23 -32 -7 -75 -21 -96 -32 -22 -11 -45 -17 -52 -14 -8 3 -19 -2 -25 -10 -7
-8 -18 -14 -25 -14 -7 0 -18 -13 -25 -30 -10 -24 -10 -36 0 -60 10 -24 10 -46
0 -111 -14 -87 -9 -282 8 -315 5 -11 19 -50 31 -88 35 -108 131 -236 198 -266
40 -18 57 -59 50 -123 -20 -176 -18 -172 -111 -207 -29 -11 -47 -26 -61 -52
l-20 -37 21 -28 c40 -53 77 -65 253 -79 123 -10 282 39 295 92 12 45 -22 86
-88 109 -62 22 -81 43 -72 81 4 13 0 40 -9 60 -8 20 -15 60 -15 88 0 43 4 54
26 71 14 11 34 28 45 38 10 9 19 15 19 12 0 -2 16 12 35 32 19 20 35 40 35 45
0 5 4 7 8 4 10 -6 53 71 83 146 28 72 49 190 49 278 0 66 -4 108 -24 270 -3
19 -5 38 -5 41 -1 4 -21 13 -46 20 -33 10 -41 16 -34 25 8 9 4 11 -13 7 -21
-4 -22 -3 -5 10 23 19 22 30 -2 17 -27 -14 -76 -13 -90 3 -8 10 -25 12 -67 6
-31 -4 -59 -11 -62 -15 -4 -4 8 -4 26 -1 42 8 161 -19 187 -43 11 -10 31 -20
44 -22 16 -2 31 -16 43 -40 28 -54 37 -340 14 -448 -31 -149 -131 -296 -235
-349 -21 -11 -41 -27 -45 -36 -13 -34 -6 -147 11 -175 15 -27 15 -30 -1 -55
-10 -15 -14 -25 -8 -21 5 3 12 -7 15 -22 5 -25 12 -30 63 -41 39 -9 67 -23 87
-42 27 -27 28 -31 14 -52 -26 -40 -99 -60 -242 -65 -135 -4 -207 8 -262 43
-51 34 -6 106 75 119 55 8 75 30 70 74 -3 20 1 52 8 71 14 40 17 101 8 150 -5
25 -19 40 -58 65 -102 65 -187 193 -216 326 -16 74 -20 237 -9 339 7 58 7 87
0 94 -6 6 -11 19 -11 28 0 21 46 59 70 59 10 0 23 6 29 14 28 33 255 56 304
31 7 -4 2 2 -11 12 -16 13 -21 25 -16 38 5 16 3 15 -11 -4 l-18 -24 -18 24
c-15 20 -19 21 -19 7z"/>
<path d="M1265 2106 c-22 -7 -39 -18 -37 -24 1 -7 -10 -12 -26 -12 -29 0 -62
-26 -62 -48 0 -7 11 -12 25 -12 14 0 24 -5 23 -12 -3 -13 128 -47 187 -48 22
0 59 -2 82 -3 23 -1 39 1 37 5 -3 5 0 8 5 8 6 0 11 -4 11 -10 0 -5 19 -10 43
-10 36 0 43 3 43 20 0 11 -6 20 -14 20 -7 0 -10 -5 -7 -10 9 -14 -21 -24 -42
-14 -10 4 -36 8 -58 9 -114 3 -141 6 -117 15 30 13 28 15 -13 16 -26 0 -32 -2
-24 -12 8 -10 2 -10 -28 -1 -21 6 -40 14 -43 17 -3 3 -22 14 -42 23 -21 10
-38 20 -38 23 0 3 4 2 10 -1 5 -3 19 1 31 9 12 8 29 12 38 9 13 -4 14 -3 1 6
-21 14 -12 19 45 23 28 2 53 7 57 12 4 6 12 5 20 -1 18 -16 85 -27 91 -16 4 6
-10 10 -31 11 -20 1 -38 6 -40 12 -5 14 -78 11 -127 -4z"/>
<path d="M1565 2110 c11 -5 34 -9 50 -9 23 -1 26 2 15 9 -8 5 -31 9 -50 9 -29
0 -31 -2 -15 -9z"/>
<path d="M1665 2091 c11 -5 23 -7 28 -4 4 2 7 -1 7 -6 0 -6 7 -11 14 -11 8 0
27 -12 43 -26 22 -20 25 -28 16 -42 -6 -9 -16 -16 -22 -14 -6 1 -11 -2 -11 -7
0 -20 50 -18 70 4 29 31 15 63 -25 55 -5 -1 -14 5 -20 12 -20 27 -60 48 -90
47 -25 0 -27 -2 -10 -8z"/>
<path d="M1150 1926 c0 -35 -3 -72 -6 -80 -4 -12 4 -20 30 -31 19 -8 42 -15
51 -15 24 0 17 20 -7 21 -17 1 -19 2 -5 6 9 2 17 9 17 15 0 6 -11 3 -24 -6
-30 -19 -39 -9 -39 47 0 26 5 43 16 49 16 8 22 0 18 -24 0 -5 4 -8 9 -8 6 0
10 7 10 15 0 8 5 15 11 15 5 0 7 -5 3 -11 -4 -7 -1 -10 7 -7 8 3 15 12 17 21
2 11 -2 14 -17 10 -14 -3 -34 4 -56 21 l-35 27 0 -65z"/>
<path d="M1829 1924 c-5 -82 -1 -107 12 -99 11 7 11 122 -1 150 -5 14 -9 -2
-11 -51z"/>
<path d="M1633 1969 c-28 -10 -31 -23 -3 -14 10 3 36 2 55 -4 22 -6 45 -6 58
-1 19 7 16 9 -16 9 -21 1 -46 5 -55 10 -10 5 -27 5 -39 0z"/>
<path d="M1270 1920 c0 -27 2 -30 19 -20 34 18 41 11 43 -42 l1 -53 6 54 c3
31 12 56 19 59 10 3 10 -2 2 -20 -8 -16 -8 -31 -1 -48 9 -23 10 -21 10 17 1
23 5 44 10 47 4 3 7 -7 6 -22 -1 -15 -3 -41 -3 -58 -2 -25 -8 -33 -26 -38 -14
-3 -26 -15 -29 -28 -6 -26 1 -187 9 -200 3 -4 -1 -8 -8 -8 -8 0 -9 -3 -3 -8
16 -11 18 -45 3 -40 -7 3 -12 12 -10 22 2 9 -1 16 -5 16 -4 0 -8 33 -9 73 -1
39 -9 103 -19 140 -9 37 -14 80 -11 95 6 24 5 25 -5 8 -8 -13 -10 -52 -5 -125
8 -140 31 -255 61 -313 27 -52 30 -62 15 -53 -6 3 -13 -1 -16 -9 -6 -16 -24
-12 -24 5 0 6 5 7 11 3 14 -8 15 -11 -35 91 -24 50 -43 108 -51 155 -10 64
-13 70 -17 40 -3 -19 -4 1 -3 45 1 44 0 61 -2 37 -2 -23 -8 -40 -13 -37 -5 3
-8 -21 -6 -55 3 -38 0 -58 -6 -54 -5 4 -8 19 -6 35 3 17 0 29 -6 29 -6 0 -4 5
4 10 8 5 10 10 5 10 -14 0 -17 38 -4 45 5 4 2 13 -7 22 -11 11 -12 19 -5 26
13 13 15 30 2 23 -5 -4 -12 0 -15 6 -12 25 5 -178 20 -241 44 -189 185 -338
326 -345 60 -3 161 48 220 111 60 66 126 193 99 193 -6 0 -11 -6 -11 -12 0
-30 -61 -138 -99 -177 -44 -45 -121 -85 -183 -96 -60 -11 -141 20 -204 78 -30
27 -54 53 -54 58 0 13 23 6 36 -10 6 -8 22 -16 34 -18 13 -2 30 -12 37 -23 8
-11 24 -25 36 -31 18 -10 17 -6 -8 21 l-30 33 40 -30 c48 -37 83 -47 101 -28
11 11 8 15 -17 25 -36 15 -52 36 -21 28 14 -4 20 -2 15 5 -4 7 0 8 12 3 15 -5
16 -4 5 9 -7 9 -16 12 -19 7 -3 -5 -20 -13 -37 -19 -23 -8 -35 -7 -49 3 -10 8
-15 14 -10 14 5 0 -2 10 -15 22 -15 14 -19 23 -11 26 18 6 43 -6 36 -18 -3 -5
1 -10 10 -10 14 0 14 3 -2 23 -10 14 -25 22 -34 20 -24 -7 -33 14 -9 22 11 3
20 11 20 16 0 6 -5 7 -12 3 -7 -4 -8 -3 -4 4 4 7 4 18 -1 25 -4 6 -9 21 -10
32 -2 11 -5 31 -8 45 -4 19 -3 21 5 10 5 -8 10 -24 10 -34 0 -11 3 -17 6 -13
3 3 1 29 -5 59 -6 29 -11 82 -13 118 l-2 65 75 0 c41 0 89 -3 107 -6 43 -9 72
-1 65 18 -3 8 -11 12 -18 9 -7 -2 -17 0 -23 6 -5 5 -32 11 -59 12 -35 2 -47 6
-45 17 1 8 -7 2 -19 -13 -27 -36 -40 -35 -37 2 2 22 7 30 23 31 16 1 17 2 3 6
-22 5 -22 12 -2 38 14 19 16 19 47 2 36 -19 104 -19 112 1 3 7 9 11 15 7 10
-6 50 15 50 28 0 4 -9 3 -19 -3 -11 -5 -38 -10 -61 -10 -29 0 -39 -3 -34 -12
5 -8 2 -9 -10 -5 -10 4 -15 3 -11 -3 3 -6 -1 -10 -9 -10 -19 0 -20 12 -3 29
10 10 4 11 -30 5 -23 -3 -50 -3 -60 1 -10 4 -35 7 -55 6 -20 -2 -46 3 -57 9
-19 10 -21 8 -21 -20z m-75 -350 c-3 -5 -1 -10 5 -10 6 0 8 -10 4 -24 -3 -14
0 -29 10 -39 9 -9 15 -20 14 -24 -3 -10 51 -90 56 -83 3 3 7 3 10 0 3 -4 -6
-6 -20 -6 -21 0 -31 10 -50 49 -14 27 -26 64 -28 83 -2 19 -6 37 -10 41 -10
10 -7 23 5 23 5 0 7 -4 4 -10z m158 -82 c6 -17 -3 -38 -15 -38 -6 0 -8 9 -5
20 3 10 0 21 -7 24 -6 2 -3 5 6 5 9 1 18 -5 21 -11z"/>
<path d="M1753 1927 c-18 -6 -33 -18 -33 -25 0 -12 3 -12 15 -2 10 9 15 9 16
1 1 -6 3 -15 4 -21 1 -5 3 -13 4 -17 0 -4 6 -2 13 5 8 8 8 15 -1 26 -10 12 -9
15 6 14 15 -2 17 -9 15 -44 -3 -33 -8 -43 -25 -48 -12 -3 -29 1 -39 11 -10 9
-18 11 -18 5 0 -6 -7 -9 -15 -6 -8 4 -15 1 -15 -4 0 -6 6 -13 13 -15 6 -2 0
-3 -14 -1 -14 1 -31 -2 -38 -9 -9 -9 -14 -9 -20 2 -6 9 -11 10 -15 2 -10 -16
36 -24 91 -16 27 3 64 7 84 8 36 1 39 6 24 40 -4 10 -5 32 -3 50 6 34 1 58
-10 56 -4 -1 -22 -7 -39 -12z"/>
<path d="M1835 1768 c7 -41 7 -42 -11 -28 -17 13 -17 12 1 -9 19 -23 19 -24 1
-17 -15 5 -17 4 -7 -8 13 -15 11 -37 -4 -48 -6 -5 -5 -8 3 -8 15 0 16 -32 0
-48 -9 -9 -9 -12 1 -12 7 0 9 -5 4 -12 -4 -7 -9 -22 -10 -33 -3 -19 -2 -19 11
-2 14 18 24 87 27 182 2 72 0 85 -12 85 -7 0 -8 -14 -4 -42z"/>
<path d="M1730 1735 c-39 -40 -45 -43 -56 -27 -10 14 -11 13 -7 -11 7 -36 -4
-34 -49 10 -21 20 -38 34 -38 29 0 -4 18 -25 40 -46 35 -34 39 -42 34 -76 -2
-21 -10 -42 -17 -47 -8 -5 -5 -7 8 -5 16 3 21 12 23 53 2 38 10 57 29 78 15
15 31 27 35 27 5 0 8 -37 7 -82 -1 -54 2 -83 10 -86 18 -6 13 -40 -9 -52 -16
-8 -20 -8 -20 4 0 8 5 16 11 18 6 2 7 11 3 23 -7 17 -9 16 -16 -10 -4 -16 -5
-45 -2 -65 3 -25 -1 -45 -16 -69 -30 -47 -35 -32 -8 23 19 40 20 48 8 56 -10
6 -21 3 -33 -8 -18 -16 -19 -15 -12 29 l7 47 -29 -6 c-15 -3 -30 -8 -33 -12
-9 -12 -59 -21 -64 -11 -3 5 -15 7 -26 4 -11 -3 -20 0 -20 6 0 6 5 11 10 11 6
0 10 12 9 28 l-1 27 -8 -25 c-7 -21 -8 -22 -9 -5 -1 11 3 34 8 50 4 17 5 39 0
50 -6 16 -8 11 -10 -20 -2 -37 -3 -36 -9 15 l-7 55 -1 -45 c0 -25 3 -76 7
-115 4 -38 4 -71 -1 -73 -15 -6 -8 -42 8 -42 14 0 14 3 4 15 -9 10 -9 15 -1
15 6 0 11 9 11 20 0 11 5 20 10 20 6 0 10 -16 10 -35 0 -37 -10 -46 -75 -61
-16 -3 -25 -8 -20 -10 6 -2 44 5 85 15 42 11 63 20 48 20 -16 1 -28 6 -28 12
0 7 11 9 27 6 15 -3 37 -1 50 4 24 9 33 -4 11 -15 -7 -4 -3 -4 10 -2 33 6 29
-26 -9 -69 -17 -19 -27 -35 -22 -35 16 0 40 32 62 80 17 39 20 41 20 19 1 -17
-13 -42 -40 -73 -45 -51 -54 -55 -62 -26 -3 11 -1 18 4 15 8 -6 49 51 49 68 0
4 -8 7 -17 7 -15 0 -16 -2 -3 -10 11 -7 11 -10 2 -10 -7 0 -10 -5 -7 -10 10
-16 -24 -23 -41 -9 -15 12 -14 14 7 20 l24 7 -26 1 c-14 1 -34 -6 -45 -15 -10
-8 -14 -13 -7 -10 22 11 39 -5 41 -39 3 -37 -5 -43 -28 -22 -12 10 -12 9 -2
-4 6 -9 9 -19 5 -22 -3 -4 1 -7 9 -7 9 0 21 -7 28 -15 10 -13 17 -12 51 8 22
12 54 38 72 57 17 19 24 28 15 21 -22 -16 -24 1 -3 19 8 7 15 18 15 24 1 6 7
25 15 41 14 27 15 28 11 5 -2 -14 -7 -34 -10 -45 -5 -13 -2 -12 8 5 8 14 15
35 16 47 0 12 5 25 10 28 14 8 13 62 -1 67 -6 2 -14 42 -18 91 -6 79 -5 89 13
107 11 11 18 20 15 20 -3 0 -25 -20 -49 -45z m-80 -214 c0 -5 -10 -11 -22 -14
-13 -2 -31 -8 -40 -12 -10 -4 -18 -3 -18 2 0 6 15 15 33 21 42 13 47 14 47 3z
m-20 -41 c-8 -5 -35 -9 -60 -9 l-45 2 35 7 c19 4 46 8 60 9 20 0 22 -1 10 -9z
m53 -124 c7 4 3 -3 -9 -15 -11 -12 -28 -23 -36 -25 -9 -1 -23 -8 -32 -15 -9
-7 -16 -10 -16 -6 0 13 75 74 78 64 2 -5 9 -6 15 -3z"/>
<path d="M1425 1740 c-14 -16 -20 -17 -27 -8 -5 9 -8 7 -8 -7 0 -12 -6 -27
-12 -35 -7 -8 -2 -6 11 5 l24 20 -5 -47 c-5 -40 -3 -48 11 -48 13 0 13 2 2 9
-8 5 -9 10 -3 12 7 3 8 17 3 39 -6 28 -4 39 12 58 11 12 18 22 15 22 -3 0 -13
-9 -23 -20z"/>
<path d="M1451 1639 c0 -24 5 -66 9 -94 6 -37 7 -26 3 40 -6 94 -14 130 -12
54z"/>
<path d="M1681 1605 c1 -48 1 -49 9 -15 5 19 4 41 0 50 -6 10 -9 -1 -9 -35z"/>
<path d="M1556 1595 c6 -37 24 -73 24 -48 0 6 9 9 22 5 14 -3 19 -2 14 7 -4 6
-12 9 -17 6 -5 -4 -9 2 -9 12 0 15 -2 16 -10 3 -8 -12 -10 -12 -10 5 0 11 -5
27 -11 35 -7 11 -8 4 -3 -25z"/>
<path d="M1416 1553 c8 -32 14 -70 14 -85 0 -31 15 -45 24 -22 3 8 2 12 -4 9
-5 -3 -9 7 -9 22 1 59 -14 133 -26 133 -10 0 -9 -12 1 -57z"/>
<path d="M2337 1460 c-3 -74 -8 -148 -11 -165 -6 -27 -5 -27 4 -7 17 40 34
244 23 277 -8 24 -11 4 -16 -105z"/>
<path d="M1383 1528 c1 -31 5 -54 10 -51 4 2 7 -1 7 -6 0 -6 4 -11 9 -11 9 0
-1 57 -18 101 -7 19 -9 12 -8 -33z"/>
<path d="M774 1363 c-17 -13 -38 -73 -28 -83 9 -8 145 -13 296 -11 71 1 79 3
94 26 16 25 16 27 -7 51 -23 25 -26 25 -139 21 -63 -3 -119 -5 -125 -6 -5 -1
-26 1 -45 4 -19 3 -40 2 -46 -2z m70 -38 c20 -30 56 -34 56 -6 0 11 -6 22 -12
24 -7 3 15 6 49 6 61 1 91 -13 57 -26 -16 -6 -15 -7 2 -20 15 -11 4 -13 -80
-13 -82 0 -101 3 -113 18 -10 13 -13 13 -11 2 2 -9 -7 -16 -22 -18 l-25 -4 23
25 c17 18 20 26 10 30 -7 3 1 6 18 6 23 1 36 -6 48 -24z m266 15 c0 -5 8 -10
18 -11 10 0 12 -3 5 -6 -7 -2 -13 -11 -13 -19 0 -23 -76 -23 -99 1 -12 11 -12
17 -1 29 14 18 90 22 90 6z"/>
<path d="M1878 1358 c-18 -5 -15 -6 14 -7 44 -1 58 -18 32 -39 -16 -13 -17
-14 -1 -9 9 4 17 2 17 -3 0 -6 -19 -10 -42 -10 -40 1 -41 2 -24 15 10 8 24 16
30 18 6 2 7 8 3 13 -4 4 -16 3 -27 -4 -14 -9 -20 -9 -23 1 -3 7 -4 -1 -2 -18
1 -22 9 -31 27 -36 33 -8 255 -5 264 4 4 4 2 7 -4 7 -7 0 -12 4 -12 9 0 4 12
6 26 3 19 -3 25 -1 20 7 -4 6 -12 8 -18 5 -10 -6 -28 12 -28 30 0 4 18 6 40 4
22 -2 36 0 32 4 -9 9 -294 15 -324 6z m150 -20 c9 -9 12 -9 12 0 0 15 66 16
76 0 4 -6 -2 -18 -12 -26 -16 -13 -17 -14 -1 -9 9 4 17 2 17 -3 0 -6 -18 -10
-41 -10 l-41 0 23 19 c13 11 21 23 17 26 -4 4 -23 -6 -43 -24 -40 -35 -39 -35
-66 -21 -19 10 -26 40 -12 53 11 11 58 8 71 -5z"/>
<path d="M1440 1201 c11 -7 16 -35 19 -103 1 -51 -1 -89 -5 -85 -5 5 -8 38 -7
75 l1 67 -9 -65 c-17 -119 -18 -113 25 -123 38 -9 116 5 116 21 0 4 -33 7 -72
6 -43 -1 -53 1 -24 3 l48 4 -6 32 c-4 18 -7 41 -7 52 0 10 -5 25 -11 32 -7 9
-7 13 1 13 9 0 9 5 1 20 -8 14 -8 20 0 20 6 0 9 4 6 9 -4 5 0 12 6 14 7 3 0 6
-17 6 -16 1 -41 4 -55 7 -19 4 -22 3 -10 -5z m48 -96 c0 -47 -3 -85 -6 -85 -4
0 -7 38 -8 85 0 47 2 85 7 85 4 0 7 -38 7 -85z"/>
<path d="M1546 1168 c-3 -13 -5 -39 -5 -58 1 -27 3 -22 9 20 9 58 7 77 -4 38z"/>
<path d="M1416 924 c0 -24 -3 -41 -6 -39 -4 3 -16 -12 -26 -31 -22 -41 -66
-68 -95 -59 -20 7 -19 8 6 21 15 8 35 14 44 14 14 0 14 2 1 10 -12 8 -11 10 8
10 12 0 22 5 22 10 0 13 3 13 -57 -5 -60 -18 -75 -41 -42 -68 13 -10 31 -16
40 -14 10 3 19 1 21 -3 3 -10 118 -30 158 -29 l25 1 -25 8 c-19 6 -9 9 40 10
l65 3 -90 8 c-56 5 -94 4 -101 -2 -9 -8 -11 -5 -7 10 6 24 -12 29 -21 5 -3 -8
-10 -13 -16 -9 -6 4 -5 13 2 24 9 15 17 17 42 10 40 -12 41 -12 26 6 -10 12
-10 15 4 15 9 0 16 -6 16 -12 0 -10 3 -9 9 1 5 7 14 10 21 6 9 -6 9 -9 -1 -16
-10 -6 -4 -8 16 -8 17 0 24 3 18 6 -7 2 -13 9 -13 14 0 11 23 7 32 -5 4 -6 23
-5 49 3 36 11 40 15 26 23 -10 5 -14 14 -11 20 4 7 2 8 -5 4 -7 -4 -18 5 -29
23 -19 34 -42 47 -52 30 -6 -8 -9 -7 -13 2 -5 13 -10 -20 -10 -63 0 -12 -7
-18 -22 -18 -32 0 -35 7 -18 50 17 44 13 65 -14 72 -15 4 -18 -1 -17 -38z
m110 -39 c4 -8 10 -12 15 -9 5 3 9 0 9 -6 0 -6 5 -8 10 -5 6 4 10 -6 9 -22 0
-25 -1 -26 -9 -8 -9 20 -9 20 -10 0 -1 -17 -3 -16 -16 8 -8 15 -17 27 -20 27
-3 0 -2 -4 1 -10 3 -5 -1 -10 -10 -10 -12 0 -14 4 -6 19 6 10 7 21 4 25 -3 3
-1 6 6 6 6 0 14 -7 17 -15z"/>
<path d="M1622 817 c-8 -10 -6 -16 9 -25 11 -7 17 -17 14 -21 -2 -5 14 -4 37
2 l42 10 -48 14 c-27 8 -46 17 -43 19 3 3 22 1 44 -5 21 -6 45 -11 53 -10 13
1 -74 28 -91 29 -4 0 -11 -6 -17 -13z"/>
<path d="M2170 2290 c-12 -7 -12 -12 -2 -22 10 -10 15 -10 22 2 19 29 9 39
-20 20z"/>
<path d="M2452 1867 c-36 -11 -41 -39 -8 -45 11 -3 16 0 12 7 -4 6 8 17 29 25
60 25 35 35 -33 13z"/>
<path d="M2462 1694 c-26 -18 -28 -46 -5 -84 15 -27 15 -29 -5 -55 -29 -37
-28 -77 4 -114 14 -17 21 -31 16 -31 -17 0 -43 -50 -37 -70 17 -55 82 -69 112
-24 14 21 15 31 5 56 -10 28 -9 33 23 63 25 23 35 41 35 62 0 34 -31 79 -61
88 -14 5 -17 10 -11 18 10 12 15 40 13 64 -2 18 -30 43 -49 43 -10 0 -28 -7
-40 -16z m59 -4 c12 -7 19 -21 19 -40 0 -24 -5 -31 -27 -36 -50 -13 -80 30
-47 67 20 22 28 23 55 9z m49 -140 c11 -11 20 -33 20 -50 0 -17 -9 -39 -20
-50 -11 -11 -33 -20 -50 -20 -17 0 -39 9 -50 20 -11 11 -20 33 -20 50 0 17 9
39 20 50 11 11 33 20 50 20 17 0 39 -9 50 -20z m-42 -172 c39 -39 -17 -100
-58 -63 -34 31 -20 75 25 75 12 0 26 -5 33 -12z"/>
<path d="M2643 1500 c0 -36 2 -50 4 -32 2 17 2 47 0 65 -2 17 -4 3 -4 -33z"/>
<path d="M2298 689 c-21 -22 -34 -39 -30 -39 4 0 26 18 47 40 21 22 35 39 30
39 -6 -1 -27 -19 -47 -40z"/>
<path d="M1923 562 c-7 -4 -9 -13 -4 -20 12 -20 60 -24 84 -7 17 12 18 15 5
15 -9 0 -20 -4 -23 -10 -11 -18 -23 -11 -18 10 4 15 0 20 -13 20 -11 0 -24 -4
-31 -8z"/>
<path d="M2087 528 c-37 -22 -66 -42 -64 -44 5 -6 125 65 133 77 7 12 8 13
-69 -33z"/>
<path d="M1316 553 c-14 -15 -5 -43 14 -43 13 0 20 7 20 19 0 19 -23 35 -34
24z"/>
<path d="M1607 543 c-9 -9 -9 -43 1 -43 4 0 16 7 27 16 17 13 18 16 5 24 -18
12 -24 12 -33 3z"/>
</g>
</svg>
