<?xml version="1.0" encoding="utf-8"?>
<!-- Generator: Adobe Illustrator 26.0.3, SVG Export Plug-In . SVG Version: 6.00 Build 0)  -->
<svg version="1.0" id="katman_1" xmlns="http://www.w3.org/2000/svg" xmlns:xlink="http://www.w3.org/1999/xlink" x="0px" y="0px"
	 viewBox="0 0 600 450" style="enable-background:new 0 0 600 450;" xml:space="preserve">
<style type="text/css">
	.st0{fill-rule:evenodd;clip-rule:evenodd;fill:#E73644;}
</style>
<g id="Page-1">
	<g id="signup_ios-copy" transform="translate(-102.000000, -124.000000)">
		<g id="Brand_x2F_01-PeYa_x2F_Logo_x2F_03-Vertical" transform="translate(102.000000, 124.000000)">
			<path id="Logo" class="st0" d="M358.5,311c13.7,0,22.5,8.3,22.5,21.2c0,15.1-11.1,26-26.5,26c-13.7,0-22.5-8.3-22.5-21.2
				C332,322,343.2,311,358.5,311z M332.9,295.1c0.3,0,0.6,0.1,0.8,0.4c0.2,0.2,0.3,0.5,0.2,0.8l0,0l-12,59.7c-0.1,0.5-0.5,0.8-1,0.8
				l0,0l-11.3,0c-0.3,0-0.6-0.1-0.8-0.4c-0.2-0.2-0.3-0.5-0.2-0.8c0.2-1.3,0.5-2.4,0.7-3.5c-3.5,3.9-8.3,6.1-13.7,6.1
				c-11.2,0-18.8-8.4-18.8-21c0-15.2,10-26.3,23.7-26.3c6.9,0,12.5,3.1,15.3,8.1c0.3-1.5,4.6-23.1,4.6-23.1c0.1-0.5,0.5-0.8,1-0.8
				l0,0H332.9z M253.5,295.1c0.3,0,0.6,0.1,0.8,0.4c0.2,0.2,0.3,0.5,0.2,0.8l0,0l-12,59.7c-0.1,0.5-0.5,0.8-1,0.8l0,0l-11.3,0
				c-0.3,0-0.6-0.1-0.8-0.4c-0.2-0.2-0.3-0.5-0.2-0.8c0.2-1.3,0.5-2.4,0.7-3.5c-3.5,3.9-8.3,6.1-13.7,6.1c-11.2,0-18.8-8.4-18.8-21
				c0-15.2,10-26.3,23.7-26.3c6.9,0,12.5,3.1,15.3,8.1c0.3-1.5,4.6-23.1,4.6-23.1c0.1-0.5,0.5-0.8,1-0.8l0,0H253.5z M400.8,311.1
				c5.5-0.5,11.6,0.7,17.5,3.4c0.5,0.2,0.7,0.8,0.5,1.3l0,0l-3.9,8.8c-0.1,0.2-0.3,0.4-0.6,0.5c-0.3,0.1-0.5,0.1-0.8,0
				c-4-1.9-8-2.8-11.1-2.6c-3.1,0.3-3,1.7-2.9,2.2c0.1,0.9,0.2,1.3,3.5,3.1l0,0l5.5,2.8c5.9,3,8.6,6.4,9,11.9
				c0.8,9-5,14.7-15.8,15.7c-7.2,0.6-14.3-1.2-20.4-5.4c-0.4-0.3-0.6-0.9-0.3-1.3l0,0l4.9-8.7c0.1-0.2,0.4-0.4,0.6-0.5
				c0.3-0.1,0.5,0,0.8,0.1c5,3.1,9.7,4.5,13.5,4.2c1.3-0.1,3.4-0.6,3.2-2.4c-0.1-0.8-0.3-1.4-2.8-2.8l0,0l-6.1-3.2
				c-5.6-3-8.5-6.9-8.9-12C385.6,317.7,391.1,311.9,400.8,311.1z M171.8,311c12.7,0,20.6,7,20.6,18.4c0,2.5-0.4,4.8-1.1,8
				c-0.1,0.5-0.5,0.8-1,0.8l0,0l-31.7,0.1c0.1,5.1,3.8,8.1,10.3,8.1c3.2,0,6-0.7,9.1-2.3c0.4-0.2,0.8-0.1,1.1,0.2l0,0l6.9,7.2
				c0.4,0.4,0.3,1.2-0.2,1.5c-5.6,3.7-10.9,5.4-17.3,5.4c-14.1,0-22.9-8.1-22.9-21.1C145.8,322,156.8,311,171.8,311z M478.4,294.8
				c0.4,0,0.8,0.2,1,0.6c0.2,0.4,0.1,0.8-0.1,1.1l0,0l-29.1,37.6l-4,20.2c-0.3,1.5-1.6,2.5-3,2.5l0,0h-11.3c-0.3,0-0.6-0.1-0.8-0.4
				c-0.2-0.2-0.3-0.6-0.2-0.9l0,0l4.4-21.8l-14.8-37.5c-0.1-0.3-0.1-0.7,0.1-1c0.2-0.3,0.5-0.5,0.9-0.5l0,0h14c0.5,0,0.9,0.3,1,0.8
				c0,0,7.8,22.3,8.1,24.3c1.1-2.2,17-24.6,17-24.6c0.2-0.3,0.5-0.5,0.9-0.5l0,0H478.4z M479.4,313c3.3-1.3,6.7-1.8,10.2-1.6
				c3.8,0.2,7.7,2.1,10.2,5.1l0,0l0-0.1c0.3-1.5,0.7-3.6,0.7-3.6c0.1-0.5,0.5-0.8,1-0.8l0,0h11c0.3,0,0.6,0.1,0.8,0.4
				c0.2,0.2,0.3,0.5,0.2,0.8l0,0l-8.5,42.5c-0.1,0.5-0.5,0.8-1,0.8l0,0l-11,0c-0.3,0-0.6-0.1-0.7-0.3c-0.2-0.2-0.3-0.5-0.2-0.8
				c0.2-1,0.5-2.4,0.7-3.5c-4.3,3.7-9,5.3-14.5,5c-10.1-0.5-16.8-7.3-16.9-17.5C461.4,327.8,468.6,317.1,479.4,313z M260.3,315.9
				H272c0.3,0,0.6,0.1,0.8,0.3c0.2,0.2,0.2,0.4,0.2,0.6l0,0.2l-7.9,39.2c-0.1,0.4-0.4,0.7-0.8,0.7l-0.2,0h-11.7
				c-0.3,0-0.6-0.1-0.8-0.3c-0.2-0.2-0.2-0.4-0.2-0.6l0-0.2l7.9-39.2c0.1-0.4,0.4-0.7,0.8-0.7L260.3,315.9H272H260.3z M123.1,295.1
				c13.6,0,21.8,7.1,21.8,19c0,13.6-9.8,22-25.6,22c0,0-11.6-0.1-13.5-0.1l-0.2,0c-0.1,0.3-2.3,12-3.4,17.3
				c-0.7,3.2-3.9,3.2-3.9,3.2l0,0l-5.8,0h-4.6c-0.3,0-0.6-0.1-0.8-0.4c-0.2-0.2-0.3-0.5-0.2-0.8l0,0L98.6,296c0.1-0.5,0.5-0.8,1-0.8
				l0,0H123.1z M303.9,323.5c-1.6,0-3.2,0.3-4.6,1c-1.5,0.7-2.7,1.6-3.8,2.8c-1.1,1.2-2,2.5-2.7,4.1c-0.7,1.6-1.1,3.2-1.2,5
				c-0.1,1.4,0.1,2.8,0.5,3.9c0.4,1.2,0.9,2.1,1.7,2.9c0.8,0.8,1.7,1.4,2.7,1.9c2.3,0.9,5.4,0.9,7.8-0.2c1.3-0.6,2.5-1.3,3.6-2.3
				c1.1-1,2-2.2,2.7-3.5c0.7-1.3,1.2-2.9,1.5-4.5c0.3-1.7,0.3-3.3,0-4.7c-0.3-1.4-0.8-2.5-1.6-3.5c-0.7-1-1.7-1.7-2.8-2.2
				C306.7,323.7,305.4,323.5,303.9,323.5z M224.3,323.5c-1.6,0-3.2,0.3-4.6,1c-1.5,0.7-2.7,1.6-3.8,2.8c-1.1,1.2-2,2.5-2.7,4.1
				c-0.7,1.6-1.1,3.2-1.2,5c-0.1,1.4,0.1,2.8,0.5,3.9c0.4,1.2,0.9,2.1,1.7,2.9c0.8,0.8,1.7,1.4,2.7,1.9c2.3,0.9,5.4,0.9,7.8-0.2
				c1.3-0.6,2.5-1.3,3.6-2.3c1.1-1,2-2.2,2.7-3.5c0.7-1.3,1.2-2.9,1.5-4.5c0.3-1.7,0.3-3.3,0-4.7c-0.3-1.4-0.8-2.5-1.6-3.5
				c-0.7-1-1.7-1.7-2.8-2.2C227.1,323.7,225.8,323.5,224.3,323.5z M357.6,324.4c-6.6,0-11.4,5-11.4,11.9c0,5.5,3.5,8.7,9.3,8.7
				c6.6,0,11.4-5,11.4-11.9C366.9,327.6,363.4,324.4,357.6,324.4z M488.4,323.6c-1.6,0-3,0.3-4.4,1c-1.4,0.7-2.6,1.5-3.7,2.6
				c-1,1.1-1.9,2.4-2.5,3.9c-0.6,1.5-1,3.1-1.1,4.8c-0.1,1.4,0.1,2.7,0.4,3.8c0.4,1.1,0.9,2,1.6,2.8c0.7,0.8,1.6,1.4,2.6,1.8
				c2.2,0.9,5.1,0.8,7.5-0.2c1.3-0.5,2.4-1.3,3.4-2.2c1-0.9,1.9-2.1,2.6-3.4c0.7-1.3,1.2-2.7,1.5-4.3c0.3-1.6,0.3-3.1,0-4.4
				c-0.3-1.3-0.8-2.4-1.5-3.3c-0.7-0.9-1.6-1.6-2.7-2.1C491,323.9,489.7,323.6,488.4,323.6z M171.6,320.9c-5.6,0-9.4,2.6-11.5,7.6
				c1,0,19.3,0,20.2,0C180.2,323.5,177.3,320.9,171.6,320.9z M111.2,307.8c-0.1,0.6-3,15.1-3.1,15.5c0.3,0,10.1-0.1,11.5-0.1l0.2,0
				c6.5,0,10.3-3.1,10.3-8.6c0-4.4-2.8-6.8-8-6.8C122,307.9,111.8,307.8,111.2,307.8z M270.2,293.4c4.5,0,7.2,2.5,7.1,6.8
				c-0.1,5.3-3.9,9.2-9.1,9.2c-4.5,0-7.2-2.5-7.1-6.8C261.3,297.2,265.1,293.4,270.2,293.4z M324.8,92.3l8.2,0.1h1.8
				c31.3,0,56.8,25.5,56.8,56.8c0,31.3-25.5,56.8-56.8,56.8l0,0h-53l-7.8,28.3c-1.1,4.3-5.9,12.5-15.7,12.5l0,0H232
				c-0.8,0-1.6-0.4-2.1-1c-0.5-0.6-0.7-1.5-0.5-2.3l0,0l19.7-77.7c0.3-1.2,1.4-2,2.6-2l0,0h83.2c7.8,0,14.2-6.4,14.2-14.2
				c0-7.8-6.4-14.2-14.2-14.2l0,0l-74.2-0.1c-20.9,0-32.5-9-32.5-25.3l0,0V95c0-1.5,1.2-2.7,2.7-2.7l0,0H324.8z"/>
		</g>
	</g>
</g>
</svg>
